<svg xmlns="http://www.w3.org/2000/svg" xmlns:xlink="http://www.w3.org/1999/xlink" width="500" zoomAndPan="magnify" viewBox="0 0 375 374.999991" height="500" preserveAspectRatio="xMidYMid meet" version="1.0"><defs><g/></defs><g fill="#efd0ca" fill-opacity="1"><g transform="translate(70.015787, 284.884964)"><g><path d="M 173.8125 -148.140625 C 158.839844 -164.007812 137.800781 -173.992188 113.558594 -173.992188 C 94.839844 -173.992188 77.546875 -166.859375 63.820312 -155.09375 L 63.820312 -209.109375 C 63.820312 -214.992188 61.324219 -220.339844 57.582031 -224.085938 C 53.835938 -227.828125 48.488281 -230.144531 42.785156 -230.144531 C 36.902344 -230.144531 31.554688 -227.828125 27.808594 -224.085938 C 24.066406 -220.339844 21.75 -214.992188 21.75 -209.109375 L 21.75 -9.449219 C 21.75 -1.78125 25.492188 1.960938 33.15625 1.960938 C 41.894531 1.960938 48.847656 -3.921875 51.699219 -18.71875 L 53.835938 -25.3125 C 54.195312 -24.78125 54.730469 -24.421875 55.085938 -23.886719 C 69.167969 -8.023438 89.3125 1.960938 113.558594 1.960938 C 137.800781 1.960938 158.839844 -8.023438 173.8125 -23.886719 C 188.789062 -39.753906 197.878906 -61.859375 197.878906 -86.105469 C 197.878906 -110.347656 188.789062 -132.277344 173.8125 -148.140625 Z M 142.257812 -52.589844 C 134.058594 -44.03125 122.648438 -38.683594 109.8125 -38.683594 C 96.976562 -38.683594 85.570312 -44.03125 77.191406 -52.589844 C 68.8125 -61.144531 63.820312 -73.089844 63.820312 -86.105469 C 63.820312 -98.9375 68.8125 -110.882812 77.191406 -119.441406 C 85.570312 -127.996094 96.976562 -133.34375 109.8125 -133.34375 C 122.648438 -133.34375 134.058594 -127.996094 142.257812 -119.441406 C 150.460938 -110.882812 155.449219 -98.9375 155.449219 -86.105469 C 155.449219 -73.089844 150.460938 -61.144531 142.257812 -52.589844 Z M 142.257812 -52.589844 "/></g></g></g><g fill="#c1bcac" fill-opacity="1"><g transform="translate(314.705491, 128.586856)"><g><path d="M -173.824219 148.152344 C -158.851562 164.019531 -137.8125 174.003906 -113.566406 174.003906 C -94.847656 174.003906 -77.554688 166.871094 -63.824219 155.105469 L -63.824219 209.125 C -63.824219 215.007812 -61.328125 220.355469 -57.585938 224.101562 C -53.839844 227.84375 -48.492188 230.164062 -42.789062 230.164062 C -36.90625 230.164062 -31.554688 227.84375 -27.8125 224.101562 C -24.066406 220.355469 -21.75 215.007812 -21.75 209.125 L -21.75 9.449219 C -21.75 1.78125 -25.496094 -1.960938 -33.160156 -1.960938 C -41.894531 -1.960938 -48.847656 3.921875 -51.703125 18.71875 L -53.839844 25.316406 C -54.199219 24.78125 -54.734375 24.425781 -55.089844 23.890625 C -69.171875 8.023438 -89.320312 -1.960938 -113.566406 -1.960938 C -137.8125 -1.960938 -158.851562 8.023438 -173.824219 23.890625 C -188.800781 39.757812 -197.894531 61.863281 -197.894531 86.109375 C -197.894531 110.355469 -188.800781 132.285156 -173.824219 148.152344 Z M -142.269531 52.59375 C -134.070312 44.035156 -122.660156 38.6875 -109.820312 38.6875 C -96.984375 38.6875 -85.574219 44.035156 -77.195312 52.59375 C -68.816406 61.152344 -63.824219 73.097656 -63.824219 86.109375 C -63.824219 98.945312 -68.816406 110.890625 -77.195312 119.449219 C -85.574219 128.007812 -96.984375 133.355469 -109.820312 133.355469 C -122.660156 133.355469 -134.070312 128.007812 -142.269531 119.449219 C -150.46875 110.890625 -155.460938 98.945312 -155.460938 86.109375 C -155.460938 73.097656 -150.46875 61.152344 -142.269531 52.59375 Z M -142.269531 52.59375 "/></g></g></g></svg>